<svg xmlns="http://www.w3.org/2000/svg" viewBox="0 0 36 32" fill="none">
  <defs>
    <linearGradient id="g" x1="0" y1="0" x2="36" y2="32" gradientUnits="userSpaceOnUse">
      <stop offset="0%" stop-color="#ffffff"/>
      <stop offset="50%" stop-color="#c0c8d8"/>
      <stop offset="100%" stop-color="#8896aa"/>
    </linearGradient>
  </defs>
  <rect width="36" height="32" rx="7" fill="#09090b"/>
  <path d="M8 16L13 9L14.5 10.5L10.5 16L14.5 21.5L13 23L8 16Z" fill="url(#g)"/>
  <path d="M4 16L10 8L11.5 9.5L7 16L11.5 22.5L10 24L4 16Z" fill="url(#g)" opacity="0.7"/>
  <path d="M28 16L23 9L21.5 10.5L25.5 16L21.5 21.5L23 23L28 16Z" fill="url(#g)"/>
  <path d="M32 16L26 8L24.5 9.5L29 16L24.5 22.5L26 24L32 16Z" fill="url(#g)" opacity="0.7"/>
  <path d="M18 4L23 16H20.5L18 10.5L15.5 16H13L18 4Z" fill="url(#g)"/>
  <path d="M14.5 17.5H21.5L22.5 20H13.5L14.5 17.5Z" fill="url(#g)" opacity="0.6"/>
  <path d="M13.5 20H15.5L16.5 24H13L13.5 20Z" fill="url(#g)" opacity="0.8"/>
  <path d="M22.5 20H20.5L19.5 24H23L22.5 20Z" fill="url(#g)" opacity="0.8"/>
</svg>
